<svg width="92" height="24" viewBox="0 0 92 24" fill="none" xmlns="http://www.w3.org/2000/svg">
<g clip-path="url(#clip0_564_241)">
<path d="M10.5 7.63647V11.2733V12.727V16.3638H13.5001V12.727V11.2733V7.63647H10.5Z" fill="white"/>
<path d="M1.50002 12.682C2.32845 12.682 3.00003 12.0104 3.00003 11.182C3.00003 10.3536 2.32845 9.68201 1.50002 9.68201C0.671581 9.68201 0 10.3536 0 11.182C0 12.0104 0.671581 12.682 1.50002 12.682Z" fill="white"/>
<path d="M1.50002 14.318C2.32845 14.318 3.00003 13.6464 3.00003 12.818C3.00003 11.9896 2.32845 11.318 1.50002 11.318C0.671581 11.318 0 11.9896 0 12.818C0 13.6464 0.671581 14.318 1.50002 14.318Z" fill="white"/>
<path d="M3.00003 11.182H0V12.8184H3.00003V11.182Z" fill="white"/>
<path d="M22.5 14.318C23.3285 14.318 24 13.6464 24 12.818C24 11.9896 23.3285 11.318 22.5 11.318C21.6716 11.318 21 11.9896 21 12.818C21 13.6464 21.6716 14.318 22.5 14.318Z" fill="white"/>
<path d="M22.5 12.682C23.3285 12.682 24 12.0104 24 11.182C24 10.3536 23.3285 9.68201 22.5 9.68201C21.6716 9.68201 21 10.3536 21 11.182C21 12.0104 21.6716 12.682 22.5 12.682Z" fill="white"/>
<path d="M21 12.8184H24V11.182H21V12.8184Z" fill="white"/>
<path d="M6.68153 17.5911C7.50994 17.5911 8.18153 16.9195 8.18153 16.0911C8.18153 15.2626 7.50994 14.5911 6.68153 14.5911C5.85309 14.5911 5.18152 15.2626 5.18152 16.0911C5.18152 16.9195 5.85309 17.5911 6.68153 17.5911Z" fill="white"/>
<path d="M6.68153 19.2276C7.50994 19.2276 8.18153 18.5561 8.18153 17.7276C8.18153 16.8992 7.50994 16.2275 6.68153 16.2275C5.85309 16.2275 5.18152 16.8992 5.18152 17.7276C5.18152 18.5561 5.85309 19.2276 6.68153 19.2276Z" fill="white"/>
<path d="M8.18153 16.0911H5.18152V17.7274H8.18153V16.0911Z" fill="white"/>
<path d="M6.68153 7.77245C7.50994 7.77245 8.18153 7.10088 8.18153 6.27247C8.18153 5.44404 7.50994 4.77246 6.68153 4.77246C5.85309 4.77246 5.18152 5.44404 5.18152 6.27247C5.18152 7.10088 5.85309 7.77245 6.68153 7.77245Z" fill="white"/>
<path d="M6.68153 13.0905C7.50994 13.0905 8.18153 12.4189 8.18153 11.5905C8.18153 10.762 7.50994 10.0905 6.68153 10.0905C5.85309 10.0905 5.18152 10.762 5.18152 11.5905C5.18152 12.4189 5.85309 13.0905 6.68153 13.0905Z" fill="white"/>
<path d="M8.18153 6.27246H5.18152V11.6248H8.18153V6.27246Z" fill="white"/>
<path d="M17.3185 9.40957C18.1469 9.40957 18.8185 8.73799 18.8185 7.90956C18.8185 7.08112 18.1469 6.40955 17.3185 6.40955C16.4901 6.40955 15.8185 7.08112 15.8185 7.90956C15.8185 8.73799 16.4901 9.40957 17.3185 9.40957Z" fill="white"/>
<path d="M17.3185 7.77245C18.1469 7.77245 18.8185 7.10088 18.8185 6.27247C18.8185 5.44404 18.1469 4.77246 17.3185 4.77246C16.4901 4.77246 15.8185 5.44404 15.8185 6.27247C15.8185 7.10088 16.4901 7.77245 17.3185 7.77245Z" fill="white"/>
<path d="M15.8179 7.90882H18.818V6.27246H15.8179V7.90882Z" fill="white"/>
<path d="M12 4.63649C12.8285 4.63649 13.5001 3.96492 13.5001 3.13648C13.5001 2.30805 12.8285 1.63647 12 1.63647C11.1716 1.63647 10.5 2.30805 10.5 3.13648C10.5 3.96492 11.1716 4.63649 12 4.63649Z" fill="white"/>
<path d="M12 3.00001C12.8285 3.00001 13.5001 2.32844 13.5001 1.50001C13.5001 0.671577 12.8285 0 12 0C11.1716 0 10.5 0.671577 10.5 1.50001C10.5 2.32844 11.1716 3.00001 12 3.00001Z" fill="white"/>
<path d="M10.5 3.13638H13.5001V1.5H10.5V3.13638Z" fill="white"/>
<path d="M12 24C12.8285 24 13.5001 23.3284 13.5001 22.5C13.5001 21.6716 12.8285 21 12 21C11.1716 21 10.5 21.6716 10.5 22.5C10.5 23.3284 11.1716 24 12 24Z" fill="white"/>
<path d="M12 22.364C12.8285 22.364 13.5001 21.6925 13.5001 20.864C13.5001 20.0356 12.8285 19.364 12 19.364C11.1716 19.364 10.5 20.0356 10.5 20.864C10.5 21.6925 11.1716 22.364 12 22.364Z" fill="white"/>
<path d="M10.5 22.5004H13.5001V20.864H10.5V22.5004Z" fill="white"/>
<path d="M17.3185 19.2276C18.1469 19.2276 18.8185 18.5561 18.8185 17.7276C18.8185 16.8992 18.1469 16.2275 17.3185 16.2275C16.4901 16.2275 15.8185 16.8992 15.8185 17.7276C15.8185 18.5561 16.4901 19.2276 17.3185 19.2276Z" fill="white"/>
<path d="M17.3185 13.9096C18.1469 13.9096 18.8185 13.238 18.8185 12.4096C18.8185 11.5811 18.1469 10.9095 17.3185 10.9095C16.4901 10.9095 15.8185 11.5811 15.8185 12.4096C15.8185 13.238 16.4901 13.9096 17.3185 13.9096Z" fill="white"/>
<path d="M15.8179 17.7272H18.818V12.4089H15.8179V17.7272Z" fill="white"/>
<path d="M12 9.13652C12.8285 9.13652 13.5001 8.46488 13.5001 7.63651C13.5001 6.80808 12.8285 6.13647 12 6.13647C11.1716 6.13647 10.5 6.80808 10.5 7.63651C10.5 8.46488 11.1716 9.13652 12 9.13652Z" fill="white"/>
<path d="M12 17.864C12.8285 17.864 13.5001 17.1925 13.5001 16.364C13.5001 15.5356 12.8285 14.864 12 14.864C11.1716 14.864 10.5 15.5356 10.5 16.364C10.5 17.1925 11.1716 17.864 12 17.864Z" fill="white"/>
</g>
<g clip-path="url(#clip1_564_241)">
<path d="M46 0C43.6266 0 41.3065 0.70378 39.3331 2.02233C37.3598 3.34094 35.8217 5.21511 34.9134 7.40778C34.0052 9.60052 33.7676 12.0133 34.2306 14.3411C34.6936 16.6689 35.8365 18.807 37.5147 20.4853C39.193 22.1635 41.3312 23.3064 43.6589 23.7694C45.9867 24.2324 48.3995 23.9948 50.5922 23.0865C52.7849 22.1783 54.6591 20.6402 55.9777 18.6668C57.2962 16.6935 58 14.3734 58 12C58 8.81738 56.7357 5.76516 54.4853 3.51474C52.2348 1.26425 49.1826 0 46 0ZM51.5068 17.3057C51.4557 17.3905 51.3883 17.4643 51.3085 17.5228C51.2286 17.5813 51.138 17.6234 51.0417 17.6465C50.9455 17.6697 50.8456 17.6735 50.7479 17.6577C50.6501 17.6419 50.5565 17.6069 50.4725 17.5547C47.6569 15.8308 44.1133 15.4477 39.9378 16.3959C39.8428 16.4185 39.7442 16.4221 39.6478 16.4064C39.5515 16.3906 39.4591 16.3559 39.3763 16.3043C39.2935 16.2526 39.2217 16.185 39.1652 16.1054C39.1086 16.0257 39.0685 15.9357 39.0471 15.8404C39.0243 15.7448 39.0207 15.6457 39.0362 15.5486C39.0519 15.4516 39.0864 15.3586 39.138 15.275C39.1896 15.1914 39.2572 15.1188 39.3369 15.0613C39.4166 15.0039 39.5069 14.9627 39.6025 14.9401C44.1708 13.8962 48.0974 14.3464 51.2578 16.2809C51.4264 16.384 51.5473 16.5498 51.594 16.7418C51.6407 16.9339 51.6093 17.1367 51.5068 17.3057ZM52.9721 14.0399C52.8383 14.2458 52.6304 14.3923 52.3916 14.4494C52.1528 14.5064 51.9012 14.4695 51.6888 14.3464C48.0474 12.3151 43.7486 11.8122 39.7366 12.9481C39.6118 13.0177 39.473 13.0585 39.3303 13.0674C39.1876 13.0764 39.0448 13.0533 38.9122 12.9998C38.7797 12.9464 38.6608 12.864 38.5642 12.7586C38.4677 12.6532 38.3959 12.5275 38.3542 12.3909C38.3126 12.2541 38.302 12.1098 38.3234 11.9685C38.3448 11.8271 38.3975 11.6924 38.4777 11.5741C38.5579 11.4558 38.6636 11.357 38.7869 11.2848C38.9104 11.2127 39.0483 11.1691 39.1907 11.1572C41.43 10.5126 43.7756 10.322 46.0896 10.5967C48.4036 10.8713 50.6394 11.6057 52.6656 12.7566C52.8715 12.8904 53.018 13.0982 53.0751 13.337C53.1321 13.5759 53.0952 13.8275 52.9721 14.0399ZM53.0966 10.6401C49.2658 8.34155 42.8588 8.13085 39.162 9.25138C38.8776 9.33779 38.5704 9.30758 38.3082 9.16744C38.046 9.02737 37.8501 8.78886 37.7638 8.50436C37.6774 8.21994 37.7076 7.91276 37.8477 7.65052C37.9877 7.38834 38.2263 7.19251 38.5108 7.10617C42.7534 5.82283 49.7925 6.07184 54.2459 8.70548C54.4748 8.86935 54.6337 9.11336 54.6909 9.38905C54.7481 9.66468 54.6994 9.95178 54.5546 10.1933C54.4097 10.4347 54.1793 10.6127 53.9092 10.6919C53.639 10.7712 53.3489 10.7458 53.0966 10.6209V10.6401Z" fill="white"/>
</g>
<path fill-rule="evenodd" clip-rule="evenodd" d="M72.4583 4.73508C70.973 4.80867 69.7798 5.97175 69.6834 7.45583C69.591 8.87769 69.5 10.6272 69.5 12C69.5 13.3728 69.591 15.1223 69.6834 16.5442C69.7798 18.0283 70.973 19.1913 72.4583 19.2649C74.6093 19.3715 77.6836 19.5 80 19.5C82.3164 19.5 85.3907 19.3715 87.5417 19.2649C89.027 19.1913 90.2202 18.0283 90.3166 16.5442C90.409 15.1223 90.5 13.3728 90.5 12C90.5 10.6272 90.409 8.8777 90.3166 7.45583C90.2202 5.97175 89.027 4.80867 87.5417 4.73508C85.3907 4.62852 82.3164 4.5 80 4.5C77.6836 4.5 74.6093 4.62852 72.4583 4.73508ZM83.75 12L77.75 15V9L83.75 12Z" fill="white"/>
<defs>
<clipPath id="clip0_564_241">
<rect width="24" height="24" fill="white"/>
</clipPath>
<clipPath id="clip1_564_241">
<rect width="24" height="24" fill="white" transform="translate(34)"/>
</clipPath>
</defs>
</svg>
